<svg width="268" height="110" viewBox="0 0 268 110" fill="none" xmlns="http://www.w3.org/2000/svg">
<g clip-path="url(#clip0_1_217)">
<path d="M219.712 110L218.099 109.622V100.065C219.14 100.065 220.168 100.065 221.194 100.065C223.614 100.364 226.06 99.7691 228.073 98.3915C230.085 97.0139 231.525 94.9487 232.121 92.584C232.702 91.2282 233.01 89.7712 233.026 88.2963C233.041 86.8214 232.765 85.358 232.213 83.99C225.561 66.1384 219.165 48.1899 212.692 30.2705C212.503 29.7476 212.348 29.2104 212.135 28.5471C216.41 28.5471 220.555 28.5226 224.694 28.5952C225.033 28.5952 225.532 29.244 225.662 29.6798C228.083 37.3733 230.451 45.0815 232.838 52.7896C235.197 60.4105 237.559 68.0314 239.922 75.6523C240.023 75.9815 240.144 76.306 240.405 77.0468C240.676 76.2625 240.842 75.8169 240.982 75.3618C245.698 60.1651 250.407 44.9654 255.11 29.7622C255.372 28.9101 255.687 28.4937 256.699 28.5131C260.5 28.5857 264.3 28.542 268.265 28.542C268.203 28.8897 268.122 29.234 268.023 29.5734C260.499 50.6351 252.967 71.6934 245.427 92.7486C244.157 96.5216 242.263 100.055 239.825 103.202C238.288 105.088 236.382 106.641 234.224 107.764C232.066 108.888 229.701 109.56 227.275 109.738C226.849 109.787 226.432 109.903 226.016 109.99L219.712 110Z" fill="#3B3E40"/>
<path d="M69.6851 30.1061C66.6029 31.9949 64.0976 34.6925 62.4413 37.9057C60.7851 41.1188 60.0413 44.7244 60.2909 48.3307C60.5404 51.9369 61.7738 55.4059 63.8569 58.3602C65.94 61.3146 68.793 63.6414 72.106 65.0877C71.4572 66.7194 70.8568 68.3897 70.1402 70.0069C67.9004 75.0423 64.8756 79.6901 61.1783 83.7768C59.5 86.0131 57.0715 87.5694 54.3385 88.16C51.6056 88.7505 48.7515 88.3356 46.2996 86.9918C42.3463 84.9391 37.7846 84.3837 33.4543 85.4279C31.4885 85.9895 29.5807 86.8128 27.6876 87.5633C25.7183 88.4593 23.5189 88.7196 21.3948 88.3083C19.2707 87.897 17.3275 86.8346 15.8349 85.2683C10.9329 80.4442 7.05478 74.6804 4.43268 68.3221C1.13048 61.1042 -0.364922 53.1908 0.0752724 45.2655C0.117895 41.2699 1.13221 37.3446 3.03104 33.8287C4.92987 30.3128 7.65604 27.3117 10.974 25.0849C13.504 23.2945 16.4408 22.1639 19.5183 21.7952C22.5958 21.4266 25.7167 21.8318 28.5981 22.9741C30.2685 23.6132 31.9533 24.2232 33.6189 24.8671C35.4682 25.5898 37.5216 25.5898 39.3709 24.8671C42.2671 23.6527 45.2499 22.6559 48.2943 21.8848C51.9519 21.0048 55.7818 21.1565 59.3582 22.3233C62.9346 23.4901 66.1171 25.6261 68.5521 28.4937C68.8638 28.8591 69.1565 29.2404 69.4286 29.6362C69.5271 29.7853 69.6128 29.9426 69.6851 30.1061V30.1061Z" fill="#3B3E40"/>
<path d="M108.38 59.9168V87.6748H95.734V6.29451C96.0971 6.26061 96.3923 6.20703 96.7021 6.20703C107.02 6.20703 117.338 6.08592 127.656 6.26023C131.367 6.21058 135.043 6.98579 138.418 8.5298C141.793 10.0738 144.784 12.3481 147.173 15.1884C151.485 20.3951 153.656 27.0472 153.244 33.7954C153.283 37.456 152.543 41.0833 151.071 44.4352C149.599 47.7871 147.43 50.7868 144.708 53.2351C139.714 57.5917 133.29 59.9581 126.663 59.8831C121.114 59.9993 115.561 59.9167 110.008 59.9215L108.38 59.9168ZM108.463 49.1582C114.235 49.1582 119.87 49.2792 125.501 49.1097C128.813 49.0495 132.019 47.9377 134.657 45.9341C136.539 44.4234 138.032 42.4836 139.01 40.2773C139.988 38.071 140.422 35.6624 140.278 33.2534C140.502 31.2156 140.295 29.1531 139.67 27.2006C139.045 25.2481 138.016 23.4492 136.65 21.9203C135.284 20.3914 133.612 19.1671 131.742 18.3268C129.872 17.4865 127.847 17.0491 125.796 17.0431C120.132 16.709 114.433 16.9266 108.749 16.9024C108.676 16.9024 108.604 16.9751 108.463 17.0525V49.1582Z" fill="#3B3E40"/>
<path d="M170.806 45.9872H159.389C159.48 43.7232 160.03 41.5012 161.004 39.4556C161.979 37.4101 163.358 35.5834 165.059 34.0861C168.886 30.698 173.684 28.6023 178.77 28.0968C184.424 27.2551 190.2 27.9353 195.504 30.0673C199.036 31.3681 202.065 33.7569 204.153 36.8894C206.242 40.0218 207.282 43.7361 207.124 47.4976C207.124 60.4703 207.124 73.4416 207.124 86.411V87.6602H195.387V78.3204C193.746 80.2663 191.978 82.1021 190.095 83.8158C186.063 86.7885 181.185 88.3922 176.175 88.3922C171.165 88.3922 166.287 86.7885 162.255 83.8158C160.17 82.0816 158.548 79.8575 157.534 77.3428C156.519 74.828 156.143 72.1012 156.441 69.4058C156.738 66.7104 157.699 64.1306 159.238 61.8975C160.776 59.6645 162.844 57.8478 165.257 56.6098C169.787 54.6221 174.658 53.5242 179.603 53.3757C184.358 53.0707 189.117 52.8381 193.872 52.5137C194.24 52.4895 194.879 52.0297 194.879 51.7489C194.972 49.6559 194.893 47.5585 194.642 45.4786C194.391 43.7975 193.643 42.2299 192.493 40.9778C191.344 39.7257 189.846 38.8465 188.193 38.4532C185.085 37.4682 181.76 37.3927 178.611 38.2354C176.7 38.6361 174.946 39.5813 173.561 40.9569C172.176 42.3324 171.22 44.0795 170.806 45.9872V45.9872ZM194.835 61.0497C190.056 61.3596 185.385 61.5339 180.741 62.0181C178.231 62.2525 175.761 62.8074 173.391 63.6692C171.963 64.1493 170.735 65.0916 169.902 66.3472C169.069 67.6027 168.679 69.1001 168.792 70.6026C168.746 72.106 169.181 73.5847 170.035 74.8232C170.888 76.0617 172.115 76.9952 173.537 77.4876C176.199 78.6425 179.12 79.0716 182.002 78.7314C184.884 78.3912 187.625 77.2938 189.946 75.5508C192.039 73.8358 193.608 71.5667 194.472 69.0024C195.337 66.4381 195.462 63.6822 194.835 61.0497V61.0497Z" fill="#3B3E40"/>
<path d="M35.9185 20.253C34.0932 11.5378 43.8152 0.309873 53.4309 0C55.1207 8.93305 46.2508 21.2456 35.9185 20.253Z" fill="#3B3E40"/>
</g>
<defs>
<clipPath id="clip0_1_217">
<rect width="268" height="110" fill="white"/>
</clipPath>
</defs>
</svg>
