<svg width="268" height="106" viewBox="0 0 268 106" fill="none" xmlns="http://www.w3.org/2000/svg">
<g clip-path="url(#clip0_202_4)">
<path d="M126.756 51.7847V82.8567H116.859V6.12259H143.107C146.24 6.0574 149.355 6.61086 152.273 7.75103C155.19 8.8912 157.852 10.5955 160.104 12.7656C162.379 14.8039 164.19 17.3037 165.415 20.0969C166.639 22.8902 167.25 25.9122 167.204 28.9598C167.269 32.0237 166.669 35.0654 165.443 37.8764C164.218 40.6875 162.396 43.2014 160.104 45.2458C155.514 49.6051 149.849 51.7827 143.107 51.7786H126.756V51.7847ZM126.756 15.5697V42.3559H143.353C145.173 42.4097 146.983 42.0845 148.67 41.4014C150.356 40.7182 151.88 39.692 153.145 38.3885C154.404 37.1697 155.405 35.712 156.088 34.1014C156.771 32.4909 157.123 30.7602 157.123 29.0118C157.123 27.2634 156.771 25.5328 156.088 23.9222C155.405 22.3116 154.404 20.8539 153.145 19.6351C151.896 18.3041 150.377 17.2528 148.689 16.5508C147 15.8489 145.182 15.5124 143.353 15.5636H126.756V15.5697Z" fill="#5F6368"/>
<path d="M190.01 28.6414C197.326 28.6414 203.1 30.5883 207.333 34.4823C211.567 38.3762 213.681 43.7151 213.677 50.4989V82.8567H204.21V75.5708H203.78C199.682 81.571 194.231 84.571 187.428 84.571C181.621 84.571 176.763 82.8567 172.853 79.428C170.977 77.8544 169.477 75.8836 168.463 73.6593C167.448 71.435 166.945 69.0133 166.989 66.5707C166.989 61.1379 169.05 56.8174 173.173 53.6092C177.296 50.401 182.8 48.7928 189.685 48.7846C195.561 48.7846 200.401 49.8561 204.204 51.999V49.7458C204.215 48.0806 203.854 46.4338 203.147 44.9247C202.44 43.4157 201.405 42.0823 200.116 41.0212C197.499 38.6694 194.088 37.3861 190.564 37.4272C185.035 37.4272 180.66 39.7497 177.439 44.3947L168.723 38.9273C173.517 32.07 180.613 28.6414 190.01 28.6414ZM177.206 66.785C177.199 68.0395 177.493 69.2774 178.064 70.3957C178.635 71.5139 179.466 72.4801 180.488 73.2136C182.677 74.9285 185.394 75.837 188.178 75.7851C192.355 75.7782 196.358 74.1225 199.311 71.181C202.59 68.1074 204.229 64.5012 204.229 60.3624C201.143 57.9133 196.84 56.6888 191.32 56.6888C187.299 56.6888 183.947 57.6542 181.263 59.5848C178.552 61.544 177.206 63.9257 177.206 66.785V66.785Z" fill="#5F6368"/>
<path d="M268.018 30.3557L234.971 106H224.754L237.018 79.5322L215.288 30.3557H226.045L241.751 68.0707H241.967L257.242 30.3557H268.018Z" fill="#5F6368"/>
<path d="M86.7617 45.0865C86.7655 42.0825 86.5105 39.0837 85.9995 36.123H44.2599V53.1009H68.1664C67.6772 55.8125 66.6418 58.3974 65.1226 60.6997C63.6034 63.002 61.6318 64.9741 59.3267 66.4971V77.5177H73.5944C81.9485 69.8461 86.7617 58.501 86.7617 45.0865Z" fill="#4285F4"/>
<path d="M44.2599 88.1649C56.204 88.1649 66.2608 84.2587 73.5944 77.5239L59.3267 66.5032C55.3556 69.1849 50.2412 70.7156 44.2599 70.7156C32.7155 70.7156 22.9168 62.9644 19.4129 52.5193H4.71491V63.8766C8.39873 71.1777 14.0475 77.3153 21.0305 81.6042C28.0135 85.8931 36.0559 88.1645 44.2599 88.1649V88.1649Z" fill="#34A853"/>
<path d="M19.4129 52.5195C17.5605 47.0462 17.5605 41.119 19.4129 35.6457V24.2883H4.71491C1.61595 30.4302 0.00201416 37.2088 0.00201416 44.0826C0.00201416 50.9564 1.61595 57.735 4.71491 63.8769L19.4129 52.5195Z" fill="#FBBC04"/>
<path d="M44.2599 17.4493C50.5718 17.3466 56.6708 19.7218 61.2385 24.0616L73.871 11.4798C65.8607 3.98622 55.2488 -0.127871 44.2599 -3.74649e-05C36.0559 0.000334941 28.0135 2.27177 21.0305 6.56068C14.0475 10.8496 8.39873 16.9872 4.71491 24.2882L19.4129 35.6455C22.9168 25.2004 32.7155 17.4493 44.2599 17.4493Z" fill="#EA4335"/>
</g>
<defs>
<clipPath id="clip0_202_4">
<rect width="268" height="106" fill="white"/>
</clipPath>
</defs>
</svg>
