<svg width="330" height="110" viewBox="0 0 330 110" fill="none" xmlns="http://www.w3.org/2000/svg">
<path d="M329.622 23.0926C329.401 24.0154 329.188 24.9408 328.951 25.8611C326.737 34.4824 319.656 39.6938 310.387 39.4579C306.86 39.3931 303.362 38.8099 300.004 37.727C298.86 37.3513 297.42 37.8559 296.118 37.9692C294.392 38.1191 292.668 38.4121 290.943 38.4155C274.728 38.4502 258.513 38.4571 242.298 38.4361H240.526C240.932 35.7589 241.312 33.2392 241.681 30.803H262.045C261.918 30.9565 262.02 30.8908 262.019 30.8266C261.935 25.8434 261.881 20.8601 261.717 15.8769C261.686 14.95 261.287 14.0054 260.924 13.1243C259.618 9.95685 257.231 8.33268 253.786 8.32013C251.083 8.31017 248.381 8.31681 245.679 8.31607H244.063C244.421 5.80601 244.725 3.50191 245.107 1.21111C245.232 0.86208 245.527 0.601272 245.889 0.519732C250.462 0.605369 255.091 0.337013 259.592 0.973389C266.332 1.92648 271.196 7.31426 272.371 14.4953C272.804 17.1441 272.837 19.8675 272.93 22.5614C273.019 25.1619 272.949 27.7661 272.949 30.4711C273.436 30.508 273.83 30.563 274.224 30.5634C280.088 30.5689 285.951 30.5313 291.813 30.597C293.022 30.6106 293.481 30.0802 293.604 29.054C293.679 28.3252 293.712 27.5926 293.702 26.8599C293.71 21.959 293.699 17.0578 293.708 12.1565C293.718 6.45198 296.048 3.14977 301.503 1.45178C303.669 0.777013 305.951 0.472852 308.18 0H312.853C313.197 0.111058 313.547 0.201046 313.902 0.269463C321.367 1.26943 326.816 6.03154 328.803 13.3255C329.113 14.4635 329.351 15.6211 329.623 16.7695L329.622 23.0926ZM303.763 10.5792C303.878 12.0136 304.05 13.2269 304.058 14.4417C304.091 19.0625 304.114 23.6847 304.042 28.3043C304.024 29.4416 304.43 29.8602 305.471 29.9285C307.295 30.0503 309.115 30.2899 310.94 30.3253C314.89 30.4017 317.474 28.5166 318.539 24.7245C319.495 21.3113 319.506 17.7024 318.57 14.2834C318.021 12.2096 316.892 10.4046 314.773 9.71839C310.95 8.48292 307.234 9.19349 303.763 10.5807V10.5792Z" fill="#26292C"/>
<path d="M236.686 0.66887C236.293 3.24095 235.914 5.72407 235.505 8.38585H233.864C226.992 8.38585 220.119 8.38782 213.247 8.39175C212.286 8.3775 211.324 8.42175 210.368 8.52427C207.559 8.87457 206.07 10.6283 206.197 13.351C206.325 16.0456 208.006 17.8315 210.721 17.9064C214.2 18.0027 217.685 17.9012 221.165 17.9769C222.72 17.9886 224.27 18.147 225.796 18.4497C231.557 19.6845 235.215 24.2927 235.13 30.1935C235.121 31.7032 234.94 33.207 234.591 34.6759C233.421 39.3926 229.971 41.6657 225.502 42.5449C223.212 42.9905 220.884 43.2162 218.55 43.2189C203.295 43.2507 188.038 43.2832 172.784 43.1359C163.27 43.044 156.975 36.864 156.435 27.3823C156.169 22.7191 155.952 18.0389 157.251 13.4617C159.4 5.89645 165.31 1.28863 173.188 1.1491C177.991 1.06384 182.797 1.13323 187.705 1.13323C187.319 3.76585 186.949 6.2881 186.554 8.98531C184.706 8.98531 182.885 8.98162 181.065 8.98531C179.278 8.99011 177.489 8.95283 175.705 9.02518C172.476 9.15659 170.066 10.7077 168.844 13.6762C168.133 15.3588 167.723 17.1536 167.634 18.9783C167.527 22.3023 167.486 25.6854 167.983 28.9577C168.559 32.7409 171.157 34.9859 174.959 35.2151C179.433 35.485 183.929 35.4126 188.417 35.4285C198.267 35.4637 208.116 35.4766 217.966 35.4673C218.698 35.4845 219.43 35.4343 220.152 35.3174C223.132 34.7604 224.84 32.5615 224.592 29.6653C224.348 26.7957 222.297 24.9405 219.232 24.8888C214.928 24.815 210.616 24.9117 206.319 24.6887C201.221 24.4244 197.527 21.556 196.199 17.1892C194.661 12.1321 196.067 6.80525 199.747 3.93749C202.683 1.6489 206.16 0.702091 209.763 0.637125C218.556 0.478031 227.353 0.551487 236.149 0.536353C236.332 0.563424 236.512 0.607795 236.686 0.66887Z" fill="#26292C"/>
<path d="M139.381 0H0V46.1856H139.381V0Z" fill="#008BCF"/>
<path d="M139.381 62.958H0V109.144H139.381V62.958Z" fill="#80AA2C"/>
<path d="M329.622 109.965C326.204 109.347 322.793 108.67 319.36 108.146C318.407 107.999 317.371 108.24 316.395 108.42C312.229 109.19 308.069 109.686 303.882 108.581C298.911 107.268 296.087 103.771 295.918 98.7076C295.742 93.4579 298.166 89.6979 303.239 88.2801C306.239 87.4418 309.432 87.227 312.558 86.9376C314.685 86.7405 316.844 86.9007 318.963 86.9007C319.991 82.545 317.983 79.8238 313.654 79.7477C308.886 79.6643 304.307 80.7385 299.825 82.2811C299.4 82.4287 298.967 82.5498 298.407 82.724C298.022 80.1169 297.651 77.6057 297.266 74.9978C304.674 72.6225 312.035 70.4849 319.881 72.0514C325.607 73.1957 328.645 76.4917 329.378 82.243C329.441 82.5992 329.522 82.9518 329.622 83.2995V109.965ZM315.173 93.2035L315.139 93.0356C313.164 93.3124 311.133 93.3888 309.23 93.9215C307.258 94.4733 306.342 96.3275 306.521 98.4791C306.674 100.321 307.77 101.815 309.759 101.999C311.835 102.162 313.924 102.048 315.969 101.659C319.371 101.053 319.372 100.935 319.34 97.4467C319.327 96.0971 319.678 94.3135 318.973 93.5302C318.351 92.8403 316.488 93.2689 315.173 93.2035Z" fill="#26292C"/>
<path d="M209.374 108.764H198.592V107.076C198.592 100.204 198.59 93.3313 198.588 86.4588C198.602 85.7259 198.572 84.9928 198.499 84.2633C198.25 82.184 196.903 80.7713 194.875 80.5517C192.55 80.2673 190.192 80.6716 188.094 81.7144C188.165 84.7413 188.275 87.5954 188.29 90.451C188.321 96.0407 188.299 101.63 188.299 107.22V108.766H177.542V107.185C177.542 100.312 177.477 93.4387 177.562 86.5674C177.629 81.2169 175.231 79.826 170.221 80.706C167.217 81.2338 167.231 81.3114 167.231 84.3168V108.716H156.287V107.06C156.287 98.1713 156.287 89.2828 156.287 80.3945C156.29 75.8874 157.434 74.3651 161.802 73.1695C167.201 71.693 172.675 70.9688 178.231 72.0765C179.74 72.4278 181.196 72.9784 182.561 73.714C183.161 74.0962 183.915 74.1457 184.56 73.845C189.854 71.6162 195.323 70.9311 200.945 72.305C205.879 73.5106 208.969 76.98 209.151 82.0433C209.404 89.09 209.319 96.1488 209.372 103.202C209.386 105.027 209.374 106.851 209.374 108.764Z" fill="#26292C"/>
<path d="M278.945 73.1515V71.5472C278.945 67.0594 278.956 62.5715 278.936 58.0837C278.932 57.3657 279.026 56.8707 279.878 56.7345C283.126 56.214 286.368 55.6482 289.815 55.0646V56.6105C289.815 71.3564 289.814 86.1023 289.812 100.848C289.812 105.071 288.886 106.361 284.862 107.598C279.68 109.201 274.202 109.611 268.839 108.797C261.02 107.633 255.792 101.747 255.168 93.5354C254.9 90.0088 255.01 86.4987 255.926 83.0396C257.764 76.1 262.707 71.9806 269.87 71.8351C272.302 71.7857 274.749 72.3682 277.186 72.6915C277.781 72.8107 278.368 72.9642 278.945 73.1515ZM278.945 90.7219V85.3696C278.945 80.4631 278.945 80.4631 273.984 80.0231C270.149 79.6832 267.355 81.5425 266.38 85.2522C265.479 88.6306 265.487 92.1871 266.404 95.5612C267.424 99.3577 270.024 101.275 273.954 101.201C275.135 101.18 276.309 100.918 277.491 100.828C278.605 100.742 279.019 100.279 278.977 99.093C278.878 96.3042 278.945 93.5111 278.945 90.7204V90.7219Z" fill="#26292C"/>
<path d="M238.597 86.9122C238.952 81.4122 237.256 79.6005 232.011 79.7474C227.674 79.8689 223.492 80.8445 219.404 82.2575C218.978 82.4051 218.545 82.5332 217.916 82.734C217.564 80.2756 217.206 77.8985 216.914 75.512C216.969 75.1904 217.181 74.9172 217.478 74.7841C223.378 72.8905 229.327 71.2313 235.62 71.5561C236.581 71.6025 237.538 71.7063 238.487 71.8669C245.571 73.0935 248.924 76.979 248.982 84.2164C249.048 92.4635 248.999 100.711 248.998 108.958C248.998 109.23 248.97 109.501 248.946 109.928C247.739 109.722 246.572 109.604 245.448 109.318C241.118 108.151 236.574 108.022 232.184 108.94C228.931 109.623 225.553 109.4 222.418 108.294C217.96 106.755 215.547 103.436 215.407 98.6737C215.263 93.8174 217.377 90.4034 221.719 88.5729C224.68 87.3245 227.825 87.0022 230.994 86.9255C233.502 86.8635 236.011 86.9122 238.597 86.9122ZM238.819 93.4775C235.681 93.4775 232.791 93.2892 229.939 93.5328C227.336 93.7543 225.849 95.7845 225.975 98.2795C226.093 100.592 227.767 102.34 230.386 102.212C233.006 102.084 235.602 101.426 238.199 100.945C238.508 100.816 238.731 100.54 238.792 100.21C238.84 97.9746 238.821 95.7376 238.821 93.4771L238.819 93.4775Z" fill="#26292C"/>
</svg>
