<svg width="179" height="110" viewBox="0 0 179 110" fill="none" xmlns="http://www.w3.org/2000/svg">
<g clip-path="url(#clip0_1_506)">
<path d="M51.737 0H58.8687C58.9334 0.179829 59.092 0.129347 59.2287 0.13654C61.6458 0.300974 64.0491 0.629272 66.4219 1.11867C74.7916 2.81866 82.6485 6.44926 89.3677 11.7214C88.2563 12.6997 87.1134 13.6456 86.038 14.6599C84.4867 16.1253 83.0124 17.6703 81.6213 19.2886C78.9071 22.451 76.559 25.9099 74.6222 29.5999C72.8735 32.9425 71.4748 36.4571 70.4496 40.0876C69.2501 44.3253 68.5636 48.6914 68.4037 53.0927C68.2986 56.2539 68.4743 59.4182 68.9288 62.5482C69.333 65.4724 69.9729 68.3591 70.8421 71.1802C72.0971 75.2526 73.8253 79.1636 75.992 82.8331C78.077 86.3617 80.5453 89.6495 83.3511 92.6372C85.2491 94.6073 87.2668 96.4584 89.3932 98.1796C89.3458 98.2295 89.2954 98.2766 89.2421 98.3201C82.5964 103.562 74.8182 107.18 66.5272 108.886C58.2363 110.591 49.6615 110.336 41.4863 108.142C34.607 106.479 28.1248 103.471 22.4137 99.2908C16.7026 95.1105 11.8757 89.841 8.21087 83.7862C3.95203 77.0247 1.2755 69.3883 0.381084 61.4476C0.33465 60.3725 0.207363 59.3025 0 58.2466V51.7155C0.183426 51.6112 0.119165 51.4314 0.129955 51.2804C0.331354 47.8612 0.879056 44.471 1.76581 41.1628C3.58167 34.1121 6.79355 27.4977 11.2112 21.7104C15.6289 15.9231 21.1631 11.0808 27.4855 7.47021C33.9979 3.64206 41.2439 1.23016 48.7515 0.39206C49.7569 0.358037 50.7569 0.226717 51.737 0V0Z" fill="#DA0018"/>
<path d="M120.126 0H126.837C126.97 0.190619 127.176 0.115214 127.348 0.126004C130.206 0.296137 133.045 0.702789 135.836 1.3417C147.317 3.82218 157.674 9.98664 165.328 18.8966C170.859 25.0374 174.889 32.3783 177.1 40.3413C179.311 48.3044 179.643 56.6722 178.071 64.7856C176.063 76.6764 170.038 87.5187 161.001 95.5037C151.137 104.575 138.28 109.7 124.881 109.901C119.939 110.038 115.003 109.485 110.214 108.257C102.701 106.389 95.6711 102.944 89.591 98.151C90.5873 97.3202 91.6266 96.5359 92.5725 95.6512C95.8098 92.6952 98.6977 89.3778 101.179 85.7641C103.569 82.2347 105.543 78.4418 107.063 74.4602C109.122 69.0382 110.307 63.3242 110.577 57.5309C110.723 54.4608 110.603 51.3838 110.217 48.3344C109.777 44.7405 108.988 41.1982 107.862 37.7572C106.629 34.0425 105.001 30.4708 103.006 27.1039C100.921 23.5733 98.4521 20.2838 95.644 17.2959C93.7469 15.3226 91.738 13.4604 89.627 11.7179C91.8656 9.93901 94.2504 8.35175 96.7556 6.97366C103.045 3.45985 109.962 1.21539 117.116 0.367035C118.129 0.349201 119.138 0.226076 120.126 0V0Z" fill="#F68A0D"/>
<path d="M89.3573 11.7212H89.6304C91.7417 13.4634 93.7507 15.326 95.6474 17.2996C98.4556 20.2874 100.925 23.5769 103.01 27.1077C105.006 30.4745 106.635 34.0462 107.869 37.7609C108.996 41.2019 109.784 44.7442 110.224 48.3382C110.61 51.3875 110.731 54.4645 110.584 57.5347C110.314 63.3279 109.128 69.0419 107.07 74.4639C105.55 78.4455 103.575 82.2383 101.186 85.7678C98.705 89.3818 95.8174 92.6992 92.5799 95.6549C91.634 96.5361 90.5942 97.324 89.5979 98.1548H89.3788C87.2522 96.4339 85.2341 94.5828 83.3364 92.6124C80.5306 89.6247 78.0627 86.3365 75.9777 82.8078C73.811 79.1383 72.0824 75.2273 70.8274 71.1549C69.9593 68.3338 69.3206 65.447 68.9175 62.523C68.4626 59.393 68.2869 56.2291 68.3925 53.0679C68.5518 48.6677 69.2392 44.3026 70.4392 40.0663C71.4648 36.436 72.8626 32.9213 74.611 29.5786C76.548 25.8887 78.8961 22.4294 81.6101 19.2669C83.0014 17.6488 84.4757 16.1038 86.0268 14.6382C87.1022 13.6455 88.2424 12.6995 89.3573 11.7212Z" fill="#E54911"/>
</g>
<defs>
<clipPath id="clip0_1_506">
<rect width="179" height="110" fill="white"/>
</clipPath>
</defs>
</svg>
