<svg width="341" height="110" viewBox="0 0 341 110" fill="none" xmlns="http://www.w3.org/2000/svg">
<path d="M340.461 108.447C332.514 108.447 324.573 108.415 316.626 108.479C315.293 108.479 314.794 108.136 314.548 106.81C313.752 102.474 312.756 98.1769 311.96 93.867C311.766 92.838 311.462 92.4626 310.355 92.4691C299.401 92.5123 288.45 92.5123 277.501 92.4691C276.42 92.4691 276.07 92.8962 275.753 93.8022C274.181 98.2804 272.517 102.739 270.925 107.198C270.679 107.877 270.537 108.492 269.489 108.492C260.351 108.441 251.22 108.46 242.082 108.447C241.922 108.406 241.769 108.346 241.624 108.266C242.038 107.237 242.445 106.201 242.878 105.172C255.981 73.9589 269.073 42.7392 282.154 11.5127C283.116 8.61271 285.008 6.11092 287.536 4.39472C290.064 2.67851 293.087 1.84336 296.137 2.01891C303.004 2.01891 309.87 2.01893 316.736 1.96716C317.966 1.96716 318.368 2.35559 318.607 3.49455C321.903 19.4573 325.222 35.3941 328.565 51.305C332.448 69.8951 336.331 88.487 340.214 107.081C340.214 107.217 340.409 107.321 340.513 107.438L340.461 108.447ZM298.842 30.8426L284.192 70.7254C291.66 70.7254 298.855 70.7254 306.058 70.7254C307.171 70.7254 307.01 70.2791 306.848 69.5026C305.359 62.4229 303.917 55.3431 302.454 48.2569C301.276 42.588 300.072 36.8934 298.842 30.8426Z" fill="#1A1F71"/>
<path d="M228.415 0.0323884C231.12 0.485384 233.832 0.893071 236.524 1.39784C239.862 2.03167 243.142 2.94272 246.329 4.12202C246.976 4.36146 247.551 4.48456 247.382 5.48115C246.198 12.4508 245.085 19.4332 243.933 26.4029C243.875 26.7329 243.759 27.0504 243.643 27.484C239.864 25.6433 235.88 24.2593 231.774 23.3615C225.45 21.9058 218.874 21.9437 212.567 23.4717C210.353 24.0298 208.345 25.2111 206.782 26.8757C206.172 27.4729 205.687 28.1846 205.353 28.9703C205.02 29.756 204.844 30.6 204.838 31.4535C204.832 32.307 204.995 33.1532 205.317 33.9435C205.639 34.7338 206.115 35.4525 206.717 36.0582C208.921 38.2711 211.48 40.0997 214.288 41.4682C219.633 44.0718 224.837 46.9557 229.878 50.1077C236.241 53.9033 240.851 60.0532 242.711 67.2246C244.036 72.893 243.759 78.8181 241.91 84.3379C240.06 89.8577 236.713 94.7545 232.24 98.481C225.461 104.253 217.135 107.906 208.297 108.984C194.276 111.161 179.934 109.827 166.555 105.101C165.093 104.603 164.724 104.021 165.002 102.454C166.232 95.5495 167.338 88.6253 168.38 81.688C168.574 80.3937 168.988 80.5751 169.856 80.9892C175.634 84.019 181.865 86.0947 188.306 87.1367C194.127 88.2042 200.107 88.0433 205.862 86.6643C208.232 86.0462 210.404 84.8322 212.172 83.1375C212.944 82.4219 213.564 81.5583 213.995 80.5978C214.427 79.6374 214.661 78.5999 214.683 77.5474C214.704 76.4948 214.513 75.4483 214.122 74.4709C213.731 73.4934 213.146 72.605 212.404 71.8581C209.601 69.119 206.329 66.9052 202.743 65.3219C197.816 63.0202 193.1 60.2918 188.649 57.1679C182.553 53.2743 178.252 47.1205 176.69 40.0578C175.812 35.2669 176.13 30.333 177.618 25.6951C179.106 21.0572 181.717 16.8587 185.219 13.4732C191.714 7.13267 199.976 2.90535 208.918 1.34609C211.358 1.05629 213.777 0.606589 216.158 0L228.415 0.0323884Z" fill="#1A1F71"/>
<path d="M66.288 58.1775C67.8994 63.3546 68.4691 68.7519 69.7828 74.0455C70.43 73.5925 70.4296 72.8807 70.6755 72.2918C79.222 49.3659 87.7463 26.4332 96.2497 3.4944C96.3486 3.01373 96.6256 2.58848 97.0254 2.30393C97.4252 2.01938 97.9182 1.89665 98.4047 1.96069C107.031 2.01893 115.651 1.96069 124.29 1.96069H126C124.524 5.60407 123.138 9.07913 121.734 12.496C108.933 43.8951 96.1402 75.2963 83.3528 106.7C83.2247 107.232 82.9041 107.698 82.4522 108.008C82.0004 108.317 81.4499 108.449 80.9071 108.376C72.339 108.298 63.7698 108.298 55.2017 108.376C54.9494 108.424 54.6903 108.419 54.4402 108.36C54.1901 108.302 53.9546 108.192 53.7498 108.037C53.5449 107.882 53.3749 107.686 53.2505 107.461C53.1261 107.236 53.0503 106.988 53.0277 106.732C45.055 76.5756 37.0563 46.4275 29.0319 16.2882C29.0319 16.1782 28.968 16.0747 28.9292 15.9647C29.3822 16.1912 29.8545 16.3791 30.2816 16.6121C36.4531 20.3124 42.1668 24.7259 47.3068 29.7618C55.5222 37.8263 61.9846 47.5001 66.288 58.1775V58.1775Z" fill="#1A1F71"/>
<path d="M133.661 108.44C129.63 108.44 125.603 108.376 121.572 108.473C120.148 108.505 119.903 108.065 120.123 106.777C121.566 98.1315 122.957 89.4796 124.362 80.8274C126.687 66.4825 129.012 52.1375 131.337 37.7926C133.192 26.3513 135.034 14.9058 136.864 3.45576C137.032 2.41387 137.349 1.94757 138.553 1.95405C146.78 2.01445 155.007 2.01445 163.234 1.95405C164.451 1.95405 164.704 2.17443 164.497 3.45576C160.359 28.6768 156.261 53.9148 152.202 79.1704C150.694 88.4957 149.178 97.8144 147.729 107.146C147.554 108.246 147.127 108.499 146.092 108.486C141.95 108.408 137.809 108.44 133.661 108.44Z" fill="#1A1F71"/>
<path d="M66.2877 58.1773C61.9781 47.5183 55.5176 37.8625 47.308 29.8133C42.1677 24.7778 36.4524 20.3643 30.2812 16.6636C29.8476 16.4048 29.3818 16.2104 28.9288 16.0163C24.6262 13.2953 20.0629 11.0107 15.3067 9.19572C10.6962 7.30895 5.96616 5.72854 1.14741 4.46504C0.610283 4.32267 -0.191509 4.38734 0.0414603 3.37134C0.22913 2.54947 0.38462 1.98638 1.51711 1.99285C16.3236 2.06404 31.1223 1.99283 45.9288 2.12873C48.7815 1.93947 51.595 2.8822 53.7573 4.75258C55.9196 6.62297 57.2575 9.2703 57.4812 12.1206C60.3415 26.817 63.2731 41.5073 66.1723 56.1973C66.3705 56.8382 66.4093 57.5175 66.2877 58.1773V58.1773Z" fill="#F8920F"/>
</svg>
